# xmcd
#
# Track frame offsets:
#	150
#	14680
#	28334
#	40555
#
# Disc length: 727 seconds
#
# Revision: 0
# Processed by: cddbd v1.5.2PL0 Copyright (c) Steve Scherf et al.
# Submitted via: audiograbber 1.83.01
#
DISCID=2b02d504
DTITLE=Western Coyboys - Ka Zeit
DYEAR=1900
DGENRE=Country
TTITLE0=Ka Zeit
TTITLE1=Dankeschön Gott für das Radio
TTITLE2=I bin nur Musiker
TTITLE3=Ich liebe Dich
EXTD=
EXTT0=
EXTT1=
EXTT2=
EXTT3=
PLAYORDER=
